<svg xmlns="http://www.w3.org/2000/svg" xmlns:xlink="http://www.w3.org/1999/xlink" viewBox="0 0 1242 442.91"><defs><style>.cls-1{fill:none;}.cls-2{isolation:isolate;}.cls-3{clip-path:url(#clip-path);}.cls-4{clip-path:url(#clip-path-2);}.cls-5{opacity:0.48;mix-blend-mode:overlay;}.cls-6{fill:url(#Degradado_sin_nombre_46);}.cls-7{fill:url(#Degradado_sin_nombre_46-2);}.cls-8{clip-path:url(#clip-path-3);}.cls-9{clip-path:url(#clip-path-4);}.cls-10{fill:url(#Degradado_sin_nombre_46-3);}.cls-11{fill:url(#Degradado_sin_nombre_46-4);}.cls-12{fill:url(#Degradado_sin_nombre_46-5);}</style><clipPath id="clip-path"><rect class="cls-1" x="1332.15" y="-2931.1" width="1242" height="2211.93"/></clipPath><clipPath id="clip-path-2"><circle class="cls-1" cx="1958.25" cy="-512.78" r="656.64"/></clipPath><linearGradient id="Degradado_sin_nombre_46" x1="2351.64" y1="-200.51" x2="2351.64" y2="640.14" gradientUnits="userSpaceOnUse"><stop offset="0" stop-color="#263962"/><stop offset="1" stop-color="#199280"/></linearGradient><linearGradient id="Degradado_sin_nombre_46-2" x1="2351.64" y1="-822.37" x2="2351.64" y2="386.82" xlink:href="#Degradado_sin_nombre_46"/><clipPath id="clip-path-3"><rect class="cls-1" x="-1.54" y="-1.07" width="1243.54" height="2213"/></clipPath><clipPath id="clip-path-4"><path class="cls-1" d="M-30.53-204.39c14.74-863.15,1298.66-863,1313.27,0C1268,658.76-15.91,658.62-30.53-204.39Z"/></clipPath><linearGradient id="Degradado_sin_nombre_46-3" x1="1019.49" y1="-6934.12" x2="1019.49" y2="-5909.02" gradientTransform="translate(1252.22 -6270.97) rotate(180)" xlink:href="#Degradado_sin_nombre_46"/><linearGradient id="Degradado_sin_nombre_46-4" x1="1019.49" y1="-6380.39" x2="1019.49" y2="-5165.36" gradientTransform="translate(1252.22 -6270.97) rotate(180)" xlink:href="#Degradado_sin_nombre_46"/><linearGradient id="Degradado_sin_nombre_46-5" x1="1019.49" y1="-7106.01" x2="1019.49" y2="-6604.72" gradientTransform="translate(1252.22 -6270.97) rotate(180)" xlink:href="#Degradado_sin_nombre_46"/></defs><title>background3</title><g class="cls-2"><g id="Layer_1" data-name="Layer 1"><g class="cls-3"><g class="cls-4"><g class="cls-5"><path class="cls-6" d="M3867-173.51c-358.05-26.3-709.71,4.39-1023,114C2601,28.17,2351.64,72,2115.07,172.85c-415.41,174.58-905.69,267.81-1361.88,214V650.73h2328C3121,565.1,3188.32,486,3272.34,418.36c158.71-129.23,417.45-250.52,677.74-265.7V-166.73C3921.52-169.34,3893.56-171.48,3867-173.51Z"/><path class="cls-7" d="M3867-173.51c26.6,2,54.56,4.17,83.12,6.78V-766.16c-251.78-38-521.13-35.73-773.65-16.75C2620.17-739.07,2140.64-546.16,1616.35-419c-262.14,65.76-543.47,105.22-812,52.61q-25.5-5-51.15-10.15V386.85c456.19,53.81,946.47-39.42,1361.88-214C2351.64,72,2601,28.17,2844-59.52,3157.25-169.12,3508.91-199.81,3867-173.51Z"/></g></g></g><g class="cls-8"><rect class="cls-1" y="-1.07" width="1242" height="2213"/><g class="cls-9"><g class="cls-5"><path class="cls-10" d="M968-298.15C214.84-93.59-563.29,180.07-1365.72,49V470.15C-915.23,643-408,668.35,85.67,618.15c599.49-77.9,1142.7-422.78,1745.5-236V-340.61C1547-406.54,1247.05-369,968-298.15Z"/><path class="cls-11" d="M-1282.6-543.67c-26.6-2-54.56-4.16-83.12-6.78V49C-562.92,180,214.5-93.54,968-298.18c279-70.8,579-108.36,863.16-42.43V-1104C730.73-1248.29-175.52-417.35-1282.6-543.67Z"/><path class="cls-12" d="M1831.17,824.21v-442c-603.18-186.75-1145.74,158-1745.5,236-493.8,50.19-1000.79,24.84-1451.39-148V824.21Z"/></g></g></g></g></g></svg>