<svg xmlns="http://www.w3.org/2000/svg" xmlns:xlink="http://www.w3.org/1999/xlink" viewBox="0 0 1242 2208"><defs><style>.cls-1{fill:none;}.cls-2{isolation:isolate;}.cls-3{clip-path:url(#clip-path);}.cls-4{clip-path:url(#clip-path-2);}.cls-5{opacity:0.48;mix-blend-mode:overlay;}.cls-6{fill:url(#Degradado_sin_nombre_46);}.cls-7{fill:url(#Degradado_sin_nombre_46-2);}.cls-8{fill:url(#Degradado_sin_nombre_46-3);}.cls-9{fill:url(#Degradado_sin_nombre_46-4);}</style><clipPath id="clip-path"><rect class="cls-1" x="0.55" y="-0.53" width="1245.8" height="2209.05"/></clipPath><clipPath id="clip-path-2"><ellipse class="cls-1" cx="55.2" cy="1103.47" rx="1186.8" ry="1104.53"/></clipPath><linearGradient id="Degradado_sin_nombre_46" x1="-2795.27" y1="-6942.61" x2="-2795.27" y2="-5528.53" gradientTransform="translate(-3609.56 -6358.75) rotate(180)" gradientUnits="userSpaceOnUse"><stop offset="0" stop-color="#263962"/><stop offset="1" stop-color="#199280"/></linearGradient><linearGradient id="Degradado_sin_nombre_46-2" x1="-2795.27" y1="-8926.43" x2="-2795.27" y2="-7202.36" xlink:href="#Degradado_sin_nombre_46"/><linearGradient id="Degradado_sin_nombre_46-3" x1="-2795.27" y1="-7988.64" x2="-2795.27" y2="-5954.65" xlink:href="#Degradado_sin_nombre_46"/><linearGradient id="Degradado_sin_nombre_46-4" x1="-2795.27" y1="-9216.29" x2="-2795.27" y2="-8374.03" xlink:href="#Degradado_sin_nombre_46"/></defs><title>ruleta</title><g class="cls-2"><g id="Layer_1" data-name="Layer 1"><g class="cls-3"><g class="cls-4"><g class="cls-5"><path class="cls-6" d="M-3553.09,538.44c647.15,44.24,1282.73-7.38,1849-191.75C-1265,199.2-814.29,125.45-386.71-44.17c750.8-293.66,1636.93-450.48,2461.45-360V-848H-2132.81c-72.1,144-193.69,277.09-345.56,390.86-286.85,217.38-754.5,421.41-1225,446.94V527C-3651.7,531.44-3601.16,535-3553.09,538.44Z"/><path class="cls-7" d="M514.66,951.42c-947.6,213.87-1814.31,538.36-2819.69,612.1-456.4,31.92-943.22,35.74-1398.29-28.17v708.44c66.41,23.06,133,44.32,196.46,64.58,670.25,206.49,1409.84,250.74,2149.43,206.49,92.45-7.37,184.9-7.37,277.35-22.12,647.14-88.5,1201.83-280.24,1802.75-420.36,421-92.81,933.25-95,1352.07,23.42V880q-46.32-8.68-92.45-17.07C1496.93,774.43,988.46,840.8,514.66,951.42Z"/><path class="cls-8" d="M-3553.09,538.44c-48.07-3.41-98.61-7-150.23-11.41V1535.35c455.07,63.91,941.89,60.09,1398.29,28.17,1005.38-73.74,1872.09-398.23,2819.69-612.1,473.8-110.62,982.27-177,1467.63-88.5q46.1,8.42,92.45,17.07V-404.14c-824.52-90.51-1710.65,66.31-2461.45,360C-814.29,125.45-1265,199.2-1704.11,346.69-2270.36,531.06-2905.94,582.68-3553.09,538.44Z"/><path class="cls-9" d="M2074.74,2839.35V2095.8c-418.82-118.4-931.06-116.23-1352.07-23.42C121.75,2212.5-432.94,2404.24-1080.08,2492.74c-92.45,14.75-184.9,14.75-277.35,22.12-739.59,44.25-1479.18,0-2149.43-206.49-63.48-20.26-130-41.52-196.46-64.58v595.56Z"/></g></g></g><rect class="cls-1" x="-87.15" y="28.62" width="1245.8" height="2209.05"/></g></g></svg>