<svg xmlns="http://www.w3.org/2000/svg" xmlns:xlink="http://www.w3.org/1999/xlink" viewBox="0 0 3280.38 2249.36"><defs><style>.cls-1{isolation:isolate;}.cls-2{opacity:0.48;mix-blend-mode:overlay;}.cls-3{fill:url(#Degradado_sin_nombre_46);}.cls-4{fill:url(#Degradado_sin_nombre_46-2);}.cls-5{fill:url(#Degradado_sin_nombre_46-3);}.cls-6{fill:url(#Degradado_sin_nombre_46-4);}</style><linearGradient id="Degradado_sin_nombre_46" x1="1640.19" y1="1375.89" x2="1640.19" y2="2238.5" gradientUnits="userSpaceOnUse"><stop offset="0" stop-color="#263962"/><stop offset="1" stop-color="#199280"/></linearGradient><linearGradient id="Degradado_sin_nombre_46-2" x1="1640.19" y1="165.72" x2="1640.19" y2="1217.43" xlink:href="#Degradado_sin_nombre_46"/><linearGradient id="Degradado_sin_nombre_46-3" x1="1640.19" y1="737.79" x2="1640.19" y2="1978.56" xlink:href="#Degradado_sin_nombre_46"/><linearGradient id="Degradado_sin_nombre_46-4" x1="1640.19" y1="-11.1" x2="1640.19" y2="502.69" xlink:href="#Degradado_sin_nombre_46"/></defs><title>Recurso 5</title><g class="cls-1"><g id="Capa_2" data-name="Capa 2"><g id="Layer_1" data-name="Layer 1"><g class="cls-2"><path class="cls-3" d="M3195.09,1403.6c-367.4-27-728.24,4.5-1049.72,117-249.31,90-505.18,135-747.93,238.43C971.19,1938.14,468.1,2033.8,0,1978.59v270.77H2388.76c40.93-87.87,110-169,196.18-238.43,162.86-132.61,428.36-257.07,695.44-272.64V1410.56C3251.08,1407.87,3222.38,1405.68,3195.09,1403.6Z"/><path class="cls-4" d="M885.7,1151.67c538-130.46,1030-328.41,1600.83-373.39,259.11-19.47,535.5-21.8,793.85,17.18V363.31c-37.7-14.08-75.49-27.05-111.53-39.4-380.53-126-800.41-153-1220.3-126-52.49,4.5-105,4.5-157.46,13.5-367.4,54-682.32,171-1023.48,256.43C528.59,524.48,237.78,525.81,0,453.58v741.66q26.3,5.31,52.49,10.42C328,1259.64,616.71,1219.15,885.7,1151.67Z"/><path class="cls-5" d="M3195.09,1403.6c27.29,2.08,56,4.27,85.29,7V795.46c-258.35-39-534.74-36.65-793.85-17.18-570.79,45-1062.84,242.93-1600.83,373.39-269,67.48-557.66,108-833.21,54Q26.32,1200.53,0,1195.24v783.35c468.1,55.21,971.19-40.45,1397.44-219.59,242.75-103.47,498.62-148.46,747.93-238.43C2466.85,1408.1,2827.69,1376.61,3195.09,1403.6Z"/><path class="cls-6" d="M0,0V453.58c237.78,72.23,528.59,70.9,767.61,14.29,341.16-85.48,656.08-202.45,1023.48-256.43,52.48-9,105-9,157.46-13.5,419.89-27,839.77,0,1220.3,126,36,12.35,73.83,25.32,111.53,39.4V0Z"/></g></g></g></g></svg>